<svg width="51" height="51" viewBox="0 0 51 51" fill="none" xmlns="http://www.w3.org/2000/svg">
<path d="M33.1633 21.2617C31.1001 23.0332 28.4259 24.1129 25.4995 24.1129C22.574 24.1129 19.8991 23.0332 17.8368 21.2617C12.3591 23.3487 8.60437 27.8485 8.60437 34.4195V44.1894C8.60437 44.1894 10.0492 46.115 13.1729 47.9185V41.0117H16.0607V49.302C18.5358 50.2761 21.6631 51 25.4995 51C29.3369 51 32.4623 50.2762 34.9392 49.302V41.0117H37.8271V47.9185C40.9507 46.115 42.3956 44.1894 42.3956 44.1894V34.4195C42.3956 27.8485 38.6408 23.3487 33.1633 21.2617Z" fill="white"/>
<path d="M25.4996 21.3066C30.4102 21.3066 34.3907 17.3263 34.3907 12.4156V8.89203C34.3906 3.98039 30.4101 0 25.4996 0C20.5889 0 16.6077 3.98039 16.6077 8.89203V12.4156C16.6076 17.3263 20.5889 21.3066 25.4996 21.3066Z" fill="white"/>
</svg>
